ffmpeg version 3.4.8-0ubuntu0.2 Copyright (c) 2000-2020 the FFmpeg developers
  built with gcc 7 (Ubuntu 7.5.0-3ubuntu1~18.04)
  configuration: --prefix=/usr --extra-version=0ubuntu0.2 --toolchain=hardened --libdir=/usr/lib/x86_64-linux-gnu --incdir=/usr/include/x86_64-linux-gnu --enable-gpl --disable-stripping --enable-avresample --enable-avisynth --enable-gnutls --enable-ladspa --enable-libass --enable-libbluray --enable-libbs2b --enable-libcaca --enable-libcdio --enable-libflite --enable-libfontconfig --enable-libfreetype --enable-libfribidi --enable-libgme --enable-libgsm --enable-libmp3lame --enable-libmysofa --enable-libopenjpeg --enable-libopenmpt --enable-libopus --enable-libpulse --enable-librubberband --enable-librsvg --enable-libshine --enable-libsnappy --enable-libsoxr --enable-libspeex --enable-libssh --enable-libtheora --enable-libtwolame --enable-libvorbis --enable-libvpx --enable-libwavpack --enable-libwebp --enable-libx265 --enable-libxml2 --enable-libxvid --enable-libzmq --enable-libzvbi --enable-omx --enable-openal --enable-opengl --enable-sdl2 --enable-libdc1394 --enable-libdrm --enable-libiec61883 --enable-chromaprint --enable-frei0r --enable-libopencv --enable-libx264 --enable-shared
  libavutil      55. 78.100 / 55. 78.100
  libavcodec     57.107.100 / 57.107.100
  libavformat    57. 83.100 / 57. 83.100
  libavdevice    57. 10.100 / 57. 10.100
  libavfilter     6.107.100 /  6.107.100
  libavresample   3.  7.  0 /  3.  7.  0
  libswscale      4.  8.100 /  4.  8.100
  libswresample   2.  9.100 /  2.  9.100
  libpostproc    54.  7.100 / 54.  7.100
Input #0, avi, from '../.././Samples/Futurama1-tmp.avi':
  Metadata:
    encoder         : MEncoder dev-CVS-040924-14:31-3.2.2
  Duration: 00:00:02.04, start: 0.000000, bitrate: 1193 kb/s
    Stream #0:0: Video: mpeg2video (Main) (mpg2 / 0x3267706D), yuv420p(tv, progressive), 480x480 [SAR 4:3 DAR 4:3], 23.98 fps, 23.98 tbr, 23.98 tbn, 47.95 tbc
    Stream #0:1: Audio: ac3 ([0] [0][0] / 0x2000), 48000 Hz, stereo, fltp, 192 kb/s
Stream mapping:
  Stream #0:0 -> #0:0 (mpeg2video (native) -> h264 (libx264))
  Stream #0:1 -> #0:1 (ac3 (native) -> aac (native))
Press [q] to stop, [?] for help
[libx264 @ 0x5592e2505200] using SAR=4/3
[libx264 @ 0x5592e2505200] using cpu capabilities: MMX2 SSE2Fast SSSE3 SSE4.2 AVX FMA3 BMI2 AVX2
[libx264 @ 0x5592e2505200] profile High, level 3.0
[libx264 @ 0x5592e2505200] 264 - core 152 r2854 e9a5903 - H.264/MPEG-4 AVC codec - Copyleft 2003-2017 - http://www.videolan.org/x264.html - options: cabac=1 ref=3 deblock=1:0:0 analyse=0x3:0x113 me=hex subme=7 psy=1 psy_rd=1.00:0.00 mixed_ref=1 me_range=16 chroma_me=1 trellis=1 8x8dct=1 cqm=0 deadzone=21,11 fast_pskip=1 chroma_qp_offset=-2 threads=6 lookahead_threads=1 sliced_threads=0 nr=0 decimate=1 interlaced=0 bluray_compat=0 constrained_intra=0 bframes=3 b_pyramid=2 b_adapt=1 b_bias=0 direct=1 weightb=1 open_gop=0 weightp=2 keyint=250 keyint_min=23 scenecut=40 intra_refresh=0 rc_lookahead=40 rc=crf mbtree=1 crf=23.0 qcomp=0.60 qpmin=0 qpmax=69 qpstep=4 ip_ratio=1.40 aq=1:1.00
Output #0, mov, to '/home/aleksandr/Pract/Samples/Futurama1-tmp.avi_tc/output_tc2.mov':
  Metadata:
    encoder         : Lavf57.83.100
    Stream #0:0: Video: h264 (libx264) (avc1 / 0x31637661), yuv420p, 480x480 [SAR 4:3 DAR 4:3], q=-1--1, 23.98 fps, 24k tbn, 23.98 tbc
    Metadata:
      encoder         : Lavc57.107.100 libx264
    Side data:
      cpb: bitrate max/min/avg: 0/0/0 buffer size: 0 vbv_delay: -1
    Stream #0:1: Audio: aac (LC) (mp4a / 0x6134706D), 48000 Hz, stereo, fltp, 128 kb/s
    Metadata:
      encoder         : Lavc57.107.100 aac
[mpeg2video @ 0x5592e2503e00] ac-tex damaged at 1 24
[mpeg2video @ 0x5592e2503e00] Warning MVs not available
[mpeg2video @ 0x5592e2503e00] concealing 180 DC, 180 AC, 180 MV errors in P frame
frame=   76 fps=0.0 q=-1.0 Lsize=     100kB time=00:00:04.01 bitrate= 204.7kbits/s dup=3 drop=0 speed=12.8x    
video:56kB audio:41kB subtitle:0kB other streams:0kB global headers:0kB muxing overhead: 3.923197%
[libx264 @ 0x5592e2505200] frame I:2     Avg QP: 8.71  size:  1266
[libx264 @ 0x5592e2505200] frame P:25    Avg QP:17.47  size:  1710
[libx264 @ 0x5592e2505200] frame B:49    Avg QP:15.36  size:   223
[libx264 @ 0x5592e2505200] consecutive B-frames: 11.8%  5.3%  3.9% 78.9%
[libx264 @ 0x5592e2505200] mb I  I16..4: 94.0%  5.5%  0.5%
[libx264 @ 0x5592e2505200] mb P  I16..4:  5.3% 18.7%  0.4%  P16..4:  3.3%  1.6%  0.4%  0.0%  0.0%    skip:70.3%
[libx264 @ 0x5592e2505200] mb B  I16..4:  0.2%  0.3%  0.0%  B16..8:  3.1%  0.9%  0.2%  direct: 0.2%  skip:95.1%  L0:40.9% L1:48.5% BI:10.6%
[libx264 @ 0x5592e2505200] 8x8 transform intra:59.1% inter:89.4%
[libx264 @ 0x5592e2505200] coded y,uvDC,uvAC intra: 32.8% 68.6% 39.5% inter: 1.2% 2.5% 0.3%
[libx264 @ 0x5592e2505200] i16 v,h,dc,p: 79%  3%  3% 15%
[libx264 @ 0x5592e2505200] i8 v,h,dc,ddl,ddr,vr,hd,vl,hu: 44%  4% 18%  3%  4% 11%  2% 12%  1%
[libx264 @ 0x5592e2505200] i4 v,h,dc,ddl,ddr,vr,hd,vl,hu: 32% 13% 16%  4%  9%  9%  4% 11%  1%
[libx264 @ 0x5592e2505200] i8c dc,h,v,p: 45%  5% 36% 14%
[libx264 @ 0x5592e2505200] Weighted P-Frames: Y:0.0% UV:0.0%
[libx264 @ 0x5592e2505200] ref P L0: 65.7% 16.3% 12.4%  5.5%
[libx264 @ 0x5592e2505200] ref B L0: 90.9%  7.2%  1.9%
[libx264 @ 0x5592e2505200] ref B L1: 98.8%  1.2%
[libx264 @ 0x5592e2505200] kb/s:141.81
[aac @ 0x5592e24f2500] Qavg: 32104.939
	Command being timed: "/usr/bin/ffmpeg -i ../.././Samples/Futurama1-tmp.avi -c:v libx264 -f mov /home/aleksandr/Pract/Samples/Futurama1-tmp.avi_tc/output_tc2.mov"
	User time (seconds): 0.66
	System time (seconds): 0.02
	Percent of CPU this job got: 190%
	Elapsed (wall clock) time (h:mm:ss or m:ss): 0:00.36
	Average shared text size (kbytes): 0
	Average unshared data size (kbytes): 0
	Average stack size (kbytes): 0
	Average total size (kbytes): 0
	Maximum resident set size (kbytes): 111672
	Average resident set size (kbytes): 0
	Major (requiring I/O) page faults: 0
	Minor (reclaiming a frame) page faults: 20568
	Voluntary context switches: 1200
	Involuntary context switches: 120
	Swaps: 0
	File system inputs: 0
	File system outputs: 224
	Socket messages sent: 0
	Socket messages received: 0
	Signals delivered: 0
	Page size (bytes): 4096
	Exit status: 0
